<svg xmlns="http://www.w3.org/2000/svg" width="900" height="300" viewBox="0 0 900 300"><rect width="100%" height="100%" fill="#FFC0CB"/><path fill="#000000" d="M215.785 163.2q.74 0 1.31.57l3.55 3.85q-2.95 3.65-7.25 5.59-4.31 1.95-10.34 1.95-5.39 0-9.7-1.85-4.3-1.84-7.35-5.12t-4.67-7.84q-1.63-4.56-1.63-9.95 0-5.46 1.74-10 1.75-4.54 4.91-7.82 3.17-3.29 7.56-5.11 4.38-1.83 9.71-1.83 5.29 0 9.4 1.75 4.1 1.74 6.98 4.55l-3.01 4.19q-.27.4-.69.7t-1.16.3q-.5 0-1.03-.28-.54-.29-1.18-.7-.63-.42-1.47-.93-.84-.5-1.94-.92-1.11-.42-2.57-.7-1.45-.29-3.36-.29-3.25 0-5.95 1.16t-4.64 3.35-3.01 5.36q-1.08 3.17-1.08 7.22 0 4.09 1.16 7.27t3.13 5.36q1.98 2.18 4.66 3.33 2.68 1.16 5.76 1.16 1.84 0 3.33-.2t2.75-.64 2.38-1.12q1.12-.69 2.23-1.69.33-.31.7-.49t.77-.18m27.91 2.54v-5.79q-3.59.16-6.03.62-2.45.45-3.92 1.15-1.48.71-2.11 1.64-.64.94-.64 2.05 0 2.17 1.29 3.11t3.37.94q2.54 0 4.4-.92t3.64-2.8m-17.49-18.05-1.47-2.65q5.92-5.43 14.27-5.43 3.01 0 5.39.99t4.02 2.75 2.5 4.2q.85 2.45.85 5.36v21.71h-3.75q-1.17 0-1.81-.35t-1.01-1.43l-.73-2.47q-1.31 1.17-2.55 2.06-1.24.88-2.58 1.49-1.34.6-2.86.92-1.53.32-3.37.32-2.18 0-4.02-.59t-3.18-1.76-2.08-2.91q-.74-1.75-.74-4.06 0-1.3.44-2.59.43-1.29 1.42-2.47.99-1.17 2.57-2.21 1.57-1.04 3.86-1.81 2.3-.77 5.35-1.25 3.05-.49 6.97-.59v-2.01q0-3.45-1.48-5.11-1.47-1.66-4.25-1.66-2.01 0-3.34.47-1.32.47-2.32 1.06-1.01.59-1.83 1.05-.82.47-1.83.47-.87 0-1.47-.45t-.97-1.05m40.63-5.36.51 3.88q1.61-3.08 3.82-4.84t5.22-1.76q2.38 0 3.82 1.04l-.53 6.2q-.17.6-.49.85t-.85.25q-.51 0-1.5-.16-.98-.17-1.92-.17-1.38 0-2.45.4t-1.92 1.16q-.86.75-1.51 1.82t-1.22 2.45v21.17h-8.28v-34.37h4.86q1.27 0 1.77.45.51.45.67 1.63m32.9-2.62q3.82 0 6.95 1.24 3.14 1.24 5.36 3.52 2.23 2.28 3.44 5.56 1.2 3.28 1.2 7.34 0 4.08-1.2 7.37-1.21 3.28-3.44 5.59-2.22 2.31-5.36 3.55-3.13 1.24-6.95 1.24-3.85 0-7-1.24t-5.38-3.55q-2.22-2.31-3.45-5.59-1.22-3.29-1.22-7.37 0-4.06 1.22-7.34 1.23-3.28 3.45-5.56 2.23-2.28 5.38-3.52t7-1.24m0 29.05q4.29 0 6.35-2.88t2.06-8.45q0-5.56-2.06-8.47-2.06-2.92-6.35-2.92-4.35 0-6.45 2.94-2.09 2.93-2.09 8.45 0 5.53 2.09 8.43 2.1 2.9 6.45 2.9m44.62-28.51h8.28v34.37h-5.06q-1.64 0-2.08-1.51l-.57-2.74q-2.11 2.14-4.65 3.46-2.55 1.33-6 1.33-2.81 0-4.97-.96-2.17-.95-3.64-2.7-1.47-1.74-2.23-4.13-.75-2.4-.75-5.28v-21.84h8.27v21.84q0 3.15 1.46 4.88 1.46 1.72 4.37 1.72 2.15 0 4.02-.95 1.88-.96 3.55-2.63zm39.3 3.72-1.88 2.98q-.33.53-.7.75t-.94.22q-.6 0-1.29-.33-.68-.34-1.59-.76-.9-.42-2.06-.75-1.16-.34-2.73-.34-2.45 0-3.84 1.04t-1.39 2.71q0 1.11.72 1.86.72.76 1.91 1.33t2.7 1.02 3.07.99q1.55.53 3.06 1.22t2.7 1.74q1.19 1.06 1.91 2.53.72 1.48.72 3.55 0 2.48-.89 4.58-.89 2.09-2.63 3.61-1.74 1.53-4.3 2.38-2.57.86-5.92.86-1.77 0-3.46-.32-1.7-.32-3.25-.89-1.56-.57-2.89-1.34-1.32-.77-2.32-1.68l1.91-3.14q.36-.57.87-.88.5-.3 1.27-.3t1.46.44q.68.43 1.59.94.9.5 2.13.93 1.22.44 3.09.44 1.48 0 2.53-.35 1.06-.35 1.75-.92.68-.57 1-1.33.32-.75.32-1.55 0-1.21-.72-1.98t-1.91-1.34-2.71-1.02q-1.53-.45-3.12-.99t-3.12-1.26q-1.52-.72-2.71-1.82-1.19-1.11-1.91-2.72-.72-1.6-.72-3.88 0-2.11.84-4.02t2.46-3.33q1.63-1.43 4.05-2.28 2.43-.86 5.62-.86 3.55 0 6.46 1.18 2.92 1.17 4.86 3.08m13.13 9.51h15.61q0-1.61-.45-3.03t-1.36-2.5q-.9-1.07-2.29-1.69t-3.23-.62q-3.59 0-5.65 2.05-2.06 2.04-2.63 5.79m21.11 4.99h-21.28q.2 2.65.94 4.58.74 1.92 1.94 3.18 1.21 1.25 2.87 1.87t3.67.62 3.46-.47q1.46-.46 2.55-1.03t1.91-1.04 1.59-.47q1.04 0 1.54.77l2.38 3.01q-1.37 1.61-3.08 2.7t-3.57 1.74q-1.86.66-3.78.92-1.93.27-3.74.27-3.58 0-6.67-1.19-3.08-1.19-5.36-3.51-2.27-2.33-3.58-5.77-1.31-3.43-1.31-7.95 0-3.52 1.14-6.62t3.27-5.39q2.13-2.3 5.19-3.64 3.07-1.34 6.92-1.34 3.25 0 5.99 1.04 2.75 1.04 4.73 3.03 1.97 2 3.1 4.89 1.12 2.9 1.12 6.62 0 1.88-.4 2.53t-1.54.65m8.24-33.63h8.27v49.78h-8.27zm43.15 42.74h9.11q2.51 0 4.22-.6t2.73-1.61q1.02-1 1.47-2.34t.45-2.85q0-1.57-.5-2.83t-1.57-2.14q-1.07-.89-2.77-1.36-1.69-.47-4.07-.47h-9.07zm7.67-34.43h-7.67v14h7.16q4.63 0 6.99-1.68 2.36-1.67 2.36-5.32 0-3.79-2.14-5.4-2.15-1.6-6.7-1.6m-16.69-6.97h16.69q4.75 0 8.14.9 3.38.91 5.54 2.58 2.16 1.68 3.17 4.06 1 2.37 1 5.36 0 1.7-.5 3.26t-1.56 2.92q-1.05 1.35-2.68 2.46-1.62 1.1-3.87 1.88 9.99 2.24 9.99 10.78 0 3.08-1.18 5.7-1.17 2.61-3.41 4.5-2.25 1.9-5.53 2.97t-7.51 1.07h-18.29zm60.97 39.56v-5.79q-3.58.16-6.03.62-2.44.45-3.92 1.15-1.47.71-2.11 1.64-.63.94-.63 2.05 0 2.17 1.29 3.11t3.36.94q2.55 0 4.41-.92t3.63-2.8m-17.48-18.05-1.48-2.65q5.93-5.43 14.27-5.43 3.02 0 5.4.99t4.02 2.75 2.49 4.2q.86 2.45.86 5.36v21.71h-3.75q-1.18 0-1.81-.35-.64-.35-1.01-1.43l-.74-2.47q-1.3 1.17-2.54 2.06-1.24.88-2.58 1.49-1.34.6-2.87.92-1.52.32-3.36.32-2.18 0-4.02-.59t-3.18-1.76-2.08-2.91q-.74-1.75-.74-4.06 0-1.3.44-2.59.43-1.29 1.42-2.47.99-1.17 2.56-2.21 1.58-1.04 3.87-1.81 2.3-.77 5.35-1.25 3.04-.49 6.96-.59v-2.01q0-3.45-1.47-5.11t-4.25-1.66q-2.01 0-3.34.47-1.32.47-2.33 1.06-1 .59-1.82 1.05-.82.47-1.83.47-.87 0-1.47-.45t-.97-1.05m40.5-5.93.57 2.71q1.04-1.04 2.19-1.93 1.16-.88 2.45-1.5t2.76-.98q1.48-.35 3.22-.35 2.81 0 4.99.96 2.18.95 3.63 2.68 1.46 1.72 2.21 4.12.76 2.39.76 5.27v21.88h-8.28v-21.88q0-3.14-1.44-4.87t-4.39-1.73q-2.14 0-4.02.98-1.87.97-3.55 2.64v24.86h-8.27v-34.37h5.06q1.61 0 2.11 1.51m37.79 0 .57 2.71q1.03-1.04 2.19-1.93 1.16-.88 2.45-1.5t2.76-.98q1.47-.35 3.22-.35 2.81 0 4.99.96 2.17.95 3.63 2.68 1.46 1.72 2.21 4.12.76 2.39.76 5.27v21.88h-8.28v-21.88q0-3.14-1.44-4.87t-4.39-1.73q-2.14 0-4.02.98-1.87.97-3.55 2.64v24.86h-8.27v-34.37h5.06q1.6 0 2.11 1.51m37.15 11.72h15.61q0-1.61-.45-3.03-.46-1.42-1.36-2.5-.9-1.07-2.29-1.69-1.4-.62-3.24-.62-3.58 0-5.64 2.05-2.06 2.04-2.63 5.79m21.1 4.99h-21.27q.2 2.65.94 4.58.74 1.92 1.94 3.18 1.21 1.25 2.87 1.87 1.65.62 3.66.62t3.47-.47q1.46-.46 2.55-1.03t1.91-1.04 1.59-.47q1.04 0 1.54.77l2.38 3.01q-1.38 1.61-3.08 2.7-1.71 1.09-3.57 1.74-1.86.66-3.79.92-1.92.27-3.73.27-3.59 0-6.67-1.19t-5.36-3.51q-2.28-2.33-3.58-5.77-1.31-3.43-1.31-7.95 0-3.52 1.14-6.62t3.26-5.39q2.13-2.3 5.2-3.64 3.06-1.34 6.91-1.34 3.25 0 6 1.04t4.72 3.03q1.98 2 3.1 4.89 1.13 2.9 1.13 6.62 0 1.88-.41 2.53-.4.65-1.54.65m15.45-16.14.5 3.88q1.61-3.08 3.82-4.84t5.22-1.76q2.38 0 3.82 1.04l-.53 6.2q-.17.6-.49.85t-.85.25q-.51 0-1.49-.16-.99-.17-1.93-.17-1.37 0-2.45.4-1.07.4-1.92 1.16-.86.75-1.51 1.82t-1.22 2.45v21.17h-8.28v-34.37h4.86q1.27 0 1.78.45.5.45.67 1.63m55.84 26.09h8.71v6.2h-26.8v-6.2h9.82v-28.24q0-1.67.1-3.45l-6.97 5.83q-.6.47-1.19.59-.59.11-1.11.01t-.92-.35-.6-.55l-2.61-3.59 14.77-12.56h6.8z"/></svg>